<mxfile host="app.diagrams.net" modified="2024-03-18T17:01:24.171Z" agent="Mozilla/5.0 (Macintosh; Intel Mac OS X 10_15_7) AppleWebKit/537.36 (KHTML, like Gecko) Chrome/122.0.0.0 Safari/537.36" etag="94w0TX6AG5RWBQqn-o45" version="24.0.7" type="github">
  <diagram name="Page-1" id="0dgwUo-tSJjgy4s31wGA">
    <mxGraphModel dx="2715" dy="1404" grid="1" gridSize="10" guides="1" tooltips="1" connect="1" arrows="1" fold="1" page="1" pageScale="1" pageWidth="850" pageHeight="1100" math="0" shadow="0">
      <root>
        <mxCell id="0" />
        <mxCell id="1" parent="0" />
        <mxCell id="i6siqstiRKPXGyHys1UC-72" value="" style="rounded=0;whiteSpace=wrap;html=1;fillColor=#dae8fc;strokeColor=#6c8ebf;" vertex="1" parent="1">
          <mxGeometry x="-60" y="170" width="960" height="950" as="geometry" />
        </mxCell>
        <mxCell id="i6siqstiRKPXGyHys1UC-1" value="" style="verticalLabelPosition=bottom;shadow=0;dashed=0;align=center;html=1;verticalAlign=top;shape=mxgraph.electrical.logic_gates.logic_gate;operation=xor;" vertex="1" parent="1">
          <mxGeometry x="630" y="350" width="100" height="60" as="geometry" />
        </mxCell>
        <mxCell id="i6siqstiRKPXGyHys1UC-2" value="" style="verticalLabelPosition=bottom;shadow=0;dashed=0;align=center;html=1;verticalAlign=top;shape=mxgraph.electrical.logic_gates.logic_gate;operation=xor;" vertex="1" parent="1">
          <mxGeometry x="630" y="540" width="100" height="60" as="geometry" />
        </mxCell>
        <mxCell id="i6siqstiRKPXGyHys1UC-3" value="" style="verticalLabelPosition=bottom;shadow=0;dashed=0;align=center;html=1;verticalAlign=top;shape=mxgraph.electrical.logic_gates.logic_gate;operation=xor;" vertex="1" parent="1">
          <mxGeometry x="790" y="440" width="100" height="60" as="geometry" />
        </mxCell>
        <mxCell id="i6siqstiRKPXGyHys1UC-4" style="edgeStyle=orthogonalEdgeStyle;rounded=0;orthogonalLoop=1;jettySize=auto;html=1;exitX=1;exitY=0.5;exitDx=0;exitDy=0;exitPerimeter=0;entryX=0;entryY=0.75;entryDx=0;entryDy=0;entryPerimeter=0;" edge="1" parent="1" source="i6siqstiRKPXGyHys1UC-2" target="i6siqstiRKPXGyHys1UC-3">
          <mxGeometry relative="1" as="geometry" />
        </mxCell>
        <mxCell id="i6siqstiRKPXGyHys1UC-5" style="edgeStyle=orthogonalEdgeStyle;rounded=0;orthogonalLoop=1;jettySize=auto;html=1;exitX=1;exitY=0.5;exitDx=0;exitDy=0;exitPerimeter=0;entryX=0;entryY=0.25;entryDx=0;entryDy=0;entryPerimeter=0;" edge="1" parent="1" source="i6siqstiRKPXGyHys1UC-1" target="i6siqstiRKPXGyHys1UC-3">
          <mxGeometry relative="1" as="geometry" />
        </mxCell>
        <mxCell id="i6siqstiRKPXGyHys1UC-6" value="" style="verticalLabelPosition=bottom;shadow=0;dashed=0;align=center;html=1;verticalAlign=top;shape=mxgraph.electrical.logic_gates.logic_gate;operation=and;" vertex="1" parent="1">
          <mxGeometry x="470" y="310" width="100" height="60" as="geometry" />
        </mxCell>
        <mxCell id="i6siqstiRKPXGyHys1UC-7" value="" style="verticalLabelPosition=bottom;shadow=0;dashed=0;align=center;html=1;verticalAlign=top;shape=mxgraph.electrical.logic_gates.logic_gate;operation=and;" vertex="1" parent="1">
          <mxGeometry x="470" y="410" width="100" height="60" as="geometry" />
        </mxCell>
        <mxCell id="i6siqstiRKPXGyHys1UC-8" value="" style="verticalLabelPosition=bottom;shadow=0;dashed=0;align=center;html=1;verticalAlign=top;shape=mxgraph.electrical.logic_gates.logic_gate;operation=and;" vertex="1" parent="1">
          <mxGeometry x="470" y="500" width="100" height="60" as="geometry" />
        </mxCell>
        <mxCell id="i6siqstiRKPXGyHys1UC-9" value="" style="verticalLabelPosition=bottom;shadow=0;dashed=0;align=center;html=1;verticalAlign=top;shape=mxgraph.electrical.logic_gates.logic_gate;operation=and;" vertex="1" parent="1">
          <mxGeometry x="470" y="600" width="100" height="60" as="geometry" />
        </mxCell>
        <mxCell id="i6siqstiRKPXGyHys1UC-10" style="edgeStyle=orthogonalEdgeStyle;rounded=0;orthogonalLoop=1;jettySize=auto;html=1;exitX=1;exitY=0.5;exitDx=0;exitDy=0;exitPerimeter=0;entryX=0;entryY=0.25;entryDx=0;entryDy=0;entryPerimeter=0;" edge="1" parent="1" source="i6siqstiRKPXGyHys1UC-6" target="i6siqstiRKPXGyHys1UC-1">
          <mxGeometry relative="1" as="geometry" />
        </mxCell>
        <mxCell id="i6siqstiRKPXGyHys1UC-11" style="edgeStyle=orthogonalEdgeStyle;rounded=0;orthogonalLoop=1;jettySize=auto;html=1;exitX=1;exitY=0.5;exitDx=0;exitDy=0;exitPerimeter=0;entryX=0;entryY=0.75;entryDx=0;entryDy=0;entryPerimeter=0;" edge="1" parent="1" source="i6siqstiRKPXGyHys1UC-7" target="i6siqstiRKPXGyHys1UC-1">
          <mxGeometry relative="1" as="geometry" />
        </mxCell>
        <mxCell id="i6siqstiRKPXGyHys1UC-12" style="edgeStyle=orthogonalEdgeStyle;rounded=0;orthogonalLoop=1;jettySize=auto;html=1;exitX=1;exitY=0.5;exitDx=0;exitDy=0;exitPerimeter=0;entryX=0;entryY=0.25;entryDx=0;entryDy=0;entryPerimeter=0;" edge="1" parent="1" source="i6siqstiRKPXGyHys1UC-8" target="i6siqstiRKPXGyHys1UC-2">
          <mxGeometry relative="1" as="geometry" />
        </mxCell>
        <mxCell id="i6siqstiRKPXGyHys1UC-13" style="edgeStyle=orthogonalEdgeStyle;rounded=0;orthogonalLoop=1;jettySize=auto;html=1;exitX=1;exitY=0.5;exitDx=0;exitDy=0;exitPerimeter=0;entryX=0;entryY=0.75;entryDx=0;entryDy=0;entryPerimeter=0;" edge="1" parent="1" source="i6siqstiRKPXGyHys1UC-9" target="i6siqstiRKPXGyHys1UC-2">
          <mxGeometry relative="1" as="geometry" />
        </mxCell>
        <mxCell id="i6siqstiRKPXGyHys1UC-14" value="" style="verticalLabelPosition=bottom;shadow=0;dashed=0;align=center;html=1;verticalAlign=top;shape=mxgraph.electrical.logic_gates.logic_gate;operation=and;negating=1;negSize=0.15;" vertex="1" parent="1">
          <mxGeometry x="260" y="310" width="100" height="60" as="geometry" />
        </mxCell>
        <mxCell id="i6siqstiRKPXGyHys1UC-15" value="aluop(1)" style="whiteSpace=wrap;html=1;" vertex="1" parent="1">
          <mxGeometry x="-160" y="340" width="60" height="30" as="geometry" />
        </mxCell>
        <mxCell id="i6siqstiRKPXGyHys1UC-17" value="aluop(2)" style="whiteSpace=wrap;html=1;" vertex="1" parent="1">
          <mxGeometry x="-160" y="500" width="60" height="30" as="geometry" />
        </mxCell>
        <mxCell id="i6siqstiRKPXGyHys1UC-18" value="A" style="whiteSpace=wrap;html=1;" vertex="1" parent="1">
          <mxGeometry x="-160" y="840" width="60" height="30" as="geometry" />
        </mxCell>
        <mxCell id="i6siqstiRKPXGyHys1UC-19" value="B" style="whiteSpace=wrap;html=1;" vertex="1" parent="1">
          <mxGeometry x="-160" y="890" width="60" height="30" as="geometry" />
        </mxCell>
        <mxCell id="i6siqstiRKPXGyHys1UC-20" style="edgeStyle=orthogonalEdgeStyle;rounded=0;orthogonalLoop=1;jettySize=auto;html=1;exitX=1;exitY=0.5;exitDx=0;exitDy=0;entryX=0;entryY=0.25;entryDx=0;entryDy=0;entryPerimeter=0;" edge="1" parent="1" source="i6siqstiRKPXGyHys1UC-15" target="i6siqstiRKPXGyHys1UC-14">
          <mxGeometry relative="1" as="geometry">
            <mxPoint x="240" y="320" as="targetPoint" />
          </mxGeometry>
        </mxCell>
        <mxCell id="i6siqstiRKPXGyHys1UC-21" style="edgeStyle=orthogonalEdgeStyle;rounded=0;orthogonalLoop=1;jettySize=auto;html=1;exitX=1;exitY=0.5;exitDx=0;exitDy=0;entryX=0;entryY=0.75;entryDx=0;entryDy=0;entryPerimeter=0;" edge="1" parent="1" source="i6siqstiRKPXGyHys1UC-17" target="i6siqstiRKPXGyHys1UC-14">
          <mxGeometry relative="1" as="geometry">
            <mxPoint x="240" y="350" as="targetPoint" />
          </mxGeometry>
        </mxCell>
        <mxCell id="i6siqstiRKPXGyHys1UC-28" value="" style="verticalLabelPosition=bottom;shadow=0;dashed=0;align=center;html=1;verticalAlign=top;shape=mxgraph.electrical.logic_gates.logic_gate;operation=and;" vertex="1" parent="1">
          <mxGeometry x="260" y="490" width="100" height="60" as="geometry" />
        </mxCell>
        <mxCell id="i6siqstiRKPXGyHys1UC-29" value="" style="verticalLabelPosition=bottom;shadow=0;dashed=0;align=center;html=1;verticalAlign=top;shape=mxgraph.electrical.logic_gates.inverter_2" vertex="1" parent="1">
          <mxGeometry x="120" y="450" width="100" height="60" as="geometry" />
        </mxCell>
        <mxCell id="i6siqstiRKPXGyHys1UC-31" style="edgeStyle=orthogonalEdgeStyle;rounded=0;orthogonalLoop=1;jettySize=auto;html=1;exitX=1;exitY=0.5;exitDx=0;exitDy=0;entryX=0;entryY=0.5;entryDx=0;entryDy=0;entryPerimeter=0;" edge="1" parent="1" source="i6siqstiRKPXGyHys1UC-15" target="i6siqstiRKPXGyHys1UC-29">
          <mxGeometry relative="1" as="geometry" />
        </mxCell>
        <mxCell id="i6siqstiRKPXGyHys1UC-33" style="edgeStyle=orthogonalEdgeStyle;rounded=0;orthogonalLoop=1;jettySize=auto;html=1;exitX=1;exitY=0.5;exitDx=0;exitDy=0;exitPerimeter=0;entryX=0;entryY=0.25;entryDx=0;entryDy=0;entryPerimeter=0;" edge="1" parent="1" source="i6siqstiRKPXGyHys1UC-29" target="i6siqstiRKPXGyHys1UC-28">
          <mxGeometry relative="1" as="geometry" />
        </mxCell>
        <mxCell id="i6siqstiRKPXGyHys1UC-34" style="edgeStyle=orthogonalEdgeStyle;rounded=0;orthogonalLoop=1;jettySize=auto;html=1;exitX=1;exitY=0.5;exitDx=0;exitDy=0;entryX=0;entryY=0.75;entryDx=0;entryDy=0;entryPerimeter=0;" edge="1" parent="1" source="i6siqstiRKPXGyHys1UC-17" target="i6siqstiRKPXGyHys1UC-28">
          <mxGeometry relative="1" as="geometry">
            <Array as="points">
              <mxPoint x="110" y="360" />
              <mxPoint x="110" y="535" />
            </Array>
          </mxGeometry>
        </mxCell>
        <mxCell id="i6siqstiRKPXGyHys1UC-38" value="" style="verticalLabelPosition=bottom;shadow=0;dashed=0;align=center;html=1;verticalAlign=top;shape=mxgraph.electrical.logic_gates.logic_gate;operation=and;" vertex="1" parent="1">
          <mxGeometry x="260" y="580" width="100" height="60" as="geometry" />
        </mxCell>
        <mxCell id="i6siqstiRKPXGyHys1UC-39" value="" style="verticalLabelPosition=bottom;shadow=0;dashed=0;align=center;html=1;verticalAlign=top;shape=mxgraph.electrical.logic_gates.inverter_2" vertex="1" parent="1">
          <mxGeometry x="120" y="620" width="100" height="60" as="geometry" />
        </mxCell>
        <mxCell id="i6siqstiRKPXGyHys1UC-41" style="edgeStyle=orthogonalEdgeStyle;rounded=0;orthogonalLoop=1;jettySize=auto;html=1;exitX=1;exitY=0.5;exitDx=0;exitDy=0;exitPerimeter=0;entryX=0;entryY=0.75;entryDx=0;entryDy=0;entryPerimeter=0;" edge="1" parent="1" source="i6siqstiRKPXGyHys1UC-39" target="i6siqstiRKPXGyHys1UC-38">
          <mxGeometry relative="1" as="geometry" />
        </mxCell>
        <mxCell id="i6siqstiRKPXGyHys1UC-43" style="edgeStyle=orthogonalEdgeStyle;rounded=0;orthogonalLoop=1;jettySize=auto;html=1;exitX=1;exitY=0.5;exitDx=0;exitDy=0;entryX=0;entryY=0.5;entryDx=0;entryDy=0;entryPerimeter=0;" edge="1" parent="1" source="i6siqstiRKPXGyHys1UC-17" target="i6siqstiRKPXGyHys1UC-39">
          <mxGeometry relative="1" as="geometry" />
        </mxCell>
        <mxCell id="i6siqstiRKPXGyHys1UC-44" style="edgeStyle=orthogonalEdgeStyle;rounded=0;orthogonalLoop=1;jettySize=auto;html=1;exitX=1;exitY=0.5;exitDx=0;exitDy=0;entryX=0;entryY=0.25;entryDx=0;entryDy=0;entryPerimeter=0;" edge="1" parent="1" source="i6siqstiRKPXGyHys1UC-15" target="i6siqstiRKPXGyHys1UC-38">
          <mxGeometry relative="1" as="geometry">
            <Array as="points">
              <mxPoint x="100" y="310" />
              <mxPoint x="100" y="595" />
            </Array>
          </mxGeometry>
        </mxCell>
        <mxCell id="i6siqstiRKPXGyHys1UC-45" value="" style="verticalLabelPosition=bottom;shadow=0;dashed=0;align=center;html=1;verticalAlign=top;shape=mxgraph.electrical.logic_gates.logic_gate;operation=and;" vertex="1" parent="1">
          <mxGeometry x="260" y="400" width="100" height="60" as="geometry" />
        </mxCell>
        <mxCell id="i6siqstiRKPXGyHys1UC-46" style="edgeStyle=orthogonalEdgeStyle;rounded=0;orthogonalLoop=1;jettySize=auto;html=1;exitX=1;exitY=0.5;exitDx=0;exitDy=0;entryX=0;entryY=0.25;entryDx=0;entryDy=0;entryPerimeter=0;" edge="1" parent="1" source="i6siqstiRKPXGyHys1UC-15" target="i6siqstiRKPXGyHys1UC-45">
          <mxGeometry relative="1" as="geometry">
            <Array as="points">
              <mxPoint x="160" y="310" />
              <mxPoint x="160" y="415" />
            </Array>
          </mxGeometry>
        </mxCell>
        <mxCell id="i6siqstiRKPXGyHys1UC-47" style="edgeStyle=orthogonalEdgeStyle;rounded=0;orthogonalLoop=1;jettySize=auto;html=1;exitX=1;exitY=0.5;exitDx=0;exitDy=0;entryX=0;entryY=0.75;entryDx=0;entryDy=0;entryPerimeter=0;" edge="1" parent="1" source="i6siqstiRKPXGyHys1UC-17" target="i6siqstiRKPXGyHys1UC-45">
          <mxGeometry relative="1" as="geometry">
            <Array as="points">
              <mxPoint x="140" y="360" />
              <mxPoint x="140" y="445" />
            </Array>
          </mxGeometry>
        </mxCell>
        <mxCell id="i6siqstiRKPXGyHys1UC-48" style="edgeStyle=orthogonalEdgeStyle;rounded=0;orthogonalLoop=1;jettySize=auto;html=1;exitX=1;exitY=0.5;exitDx=0;exitDy=0;exitPerimeter=0;entryX=0;entryY=0.25;entryDx=0;entryDy=0;entryPerimeter=0;" edge="1" parent="1" source="i6siqstiRKPXGyHys1UC-38" target="i6siqstiRKPXGyHys1UC-9">
          <mxGeometry relative="1" as="geometry" />
        </mxCell>
        <mxCell id="i6siqstiRKPXGyHys1UC-50" style="edgeStyle=orthogonalEdgeStyle;rounded=0;orthogonalLoop=1;jettySize=auto;html=1;exitX=1;exitY=0.5;exitDx=0;exitDy=0;exitPerimeter=0;entryX=0;entryY=0.25;entryDx=0;entryDy=0;entryPerimeter=0;" edge="1" parent="1" source="i6siqstiRKPXGyHys1UC-28" target="i6siqstiRKPXGyHys1UC-8">
          <mxGeometry relative="1" as="geometry" />
        </mxCell>
        <mxCell id="i6siqstiRKPXGyHys1UC-51" style="edgeStyle=orthogonalEdgeStyle;rounded=0;orthogonalLoop=1;jettySize=auto;html=1;exitX=1;exitY=0.5;exitDx=0;exitDy=0;exitPerimeter=0;entryX=0;entryY=0.25;entryDx=0;entryDy=0;entryPerimeter=0;" edge="1" parent="1" source="i6siqstiRKPXGyHys1UC-45" target="i6siqstiRKPXGyHys1UC-7">
          <mxGeometry relative="1" as="geometry" />
        </mxCell>
        <mxCell id="i6siqstiRKPXGyHys1UC-52" style="edgeStyle=orthogonalEdgeStyle;rounded=0;orthogonalLoop=1;jettySize=auto;html=1;exitX=1;exitY=0.5;exitDx=0;exitDy=0;exitPerimeter=0;entryX=0.106;entryY=0.237;entryDx=0;entryDy=0;entryPerimeter=0;" edge="1" parent="1" source="i6siqstiRKPXGyHys1UC-14" target="i6siqstiRKPXGyHys1UC-6">
          <mxGeometry relative="1" as="geometry" />
        </mxCell>
        <mxCell id="i6siqstiRKPXGyHys1UC-53" value="" style="verticalLabelPosition=bottom;shadow=0;dashed=0;align=center;html=1;verticalAlign=top;shape=mxgraph.electrical.logic_gates.logic_gate;operation=and;" vertex="1" parent="1">
          <mxGeometry x="220" y="730" width="100" height="60" as="geometry" />
        </mxCell>
        <mxCell id="i6siqstiRKPXGyHys1UC-54" value="" style="verticalLabelPosition=bottom;shadow=0;dashed=0;align=center;html=1;verticalAlign=top;shape=mxgraph.electrical.logic_gates.logic_gate;operation=or;" vertex="1" parent="1">
          <mxGeometry x="220" y="810" width="100" height="60" as="geometry" />
        </mxCell>
        <mxCell id="i6siqstiRKPXGyHys1UC-55" value="" style="verticalLabelPosition=bottom;shadow=0;dashed=0;align=center;html=1;verticalAlign=top;shape=mxgraph.electrical.logic_gates.logic_gate;operation=xor;" vertex="1" parent="1">
          <mxGeometry x="220" y="890" width="100" height="60" as="geometry" />
        </mxCell>
        <mxCell id="i6siqstiRKPXGyHys1UC-56" value="" style="verticalLabelPosition=bottom;shadow=0;dashed=0;align=center;html=1;verticalAlign=top;shape=mxgraph.electrical.logic_gates.logic_gate;operation=or;negating=1;negSize=0.15;" vertex="1" parent="1">
          <mxGeometry x="220" y="970" width="100" height="60" as="geometry" />
        </mxCell>
        <mxCell id="i6siqstiRKPXGyHys1UC-57" style="edgeStyle=orthogonalEdgeStyle;rounded=0;orthogonalLoop=1;jettySize=auto;html=1;exitX=1;exitY=0.5;exitDx=0;exitDy=0;entryX=0;entryY=0.25;entryDx=0;entryDy=0;entryPerimeter=0;" edge="1" parent="1" source="i6siqstiRKPXGyHys1UC-18" target="i6siqstiRKPXGyHys1UC-53">
          <mxGeometry relative="1" as="geometry">
            <Array as="points">
              <mxPoint x="-100" y="840" />
              <mxPoint x="20" y="840" />
              <mxPoint x="20" y="745" />
            </Array>
          </mxGeometry>
        </mxCell>
        <mxCell id="i6siqstiRKPXGyHys1UC-60" style="edgeStyle=orthogonalEdgeStyle;rounded=0;orthogonalLoop=1;jettySize=auto;html=1;exitX=1;exitY=0.5;exitDx=0;exitDy=0;entryX=0;entryY=0.75;entryDx=0;entryDy=0;entryPerimeter=0;" edge="1" parent="1" source="i6siqstiRKPXGyHys1UC-19" target="i6siqstiRKPXGyHys1UC-53">
          <mxGeometry relative="1" as="geometry">
            <Array as="points">
              <mxPoint x="-100" y="890" />
              <mxPoint x="60" y="890" />
              <mxPoint x="60" y="775" />
            </Array>
          </mxGeometry>
        </mxCell>
        <mxCell id="i6siqstiRKPXGyHys1UC-62" style="edgeStyle=orthogonalEdgeStyle;rounded=0;orthogonalLoop=1;jettySize=auto;html=1;exitX=1;exitY=0.5;exitDx=0;exitDy=0;entryX=0;entryY=0.75;entryDx=0;entryDy=0;entryPerimeter=0;" edge="1" parent="1" source="i6siqstiRKPXGyHys1UC-19" target="i6siqstiRKPXGyHys1UC-54">
          <mxGeometry relative="1" as="geometry">
            <Array as="points">
              <mxPoint x="100" y="905" />
              <mxPoint x="100" y="855" />
            </Array>
          </mxGeometry>
        </mxCell>
        <mxCell id="i6siqstiRKPXGyHys1UC-63" style="edgeStyle=orthogonalEdgeStyle;rounded=0;orthogonalLoop=1;jettySize=auto;html=1;exitX=1;exitY=0.5;exitDx=0;exitDy=0;entryX=0;entryY=0.25;entryDx=0;entryDy=0;entryPerimeter=0;" edge="1" parent="1" source="i6siqstiRKPXGyHys1UC-18" target="i6siqstiRKPXGyHys1UC-54">
          <mxGeometry relative="1" as="geometry">
            <Array as="points">
              <mxPoint x="90" y="855" />
              <mxPoint x="90" y="825" />
            </Array>
          </mxGeometry>
        </mxCell>
        <mxCell id="i6siqstiRKPXGyHys1UC-64" style="edgeStyle=orthogonalEdgeStyle;rounded=0;orthogonalLoop=1;jettySize=auto;html=1;exitX=1;exitY=0.5;exitDx=0;exitDy=0;entryX=0;entryY=0.75;entryDx=0;entryDy=0;entryPerimeter=0;" edge="1" parent="1" source="i6siqstiRKPXGyHys1UC-19" target="i6siqstiRKPXGyHys1UC-55">
          <mxGeometry relative="1" as="geometry" />
        </mxCell>
        <mxCell id="i6siqstiRKPXGyHys1UC-65" style="edgeStyle=orthogonalEdgeStyle;rounded=0;orthogonalLoop=1;jettySize=auto;html=1;exitX=1;exitY=0.5;exitDx=0;exitDy=0;entryX=0;entryY=0.75;entryDx=0;entryDy=0;entryPerimeter=0;" edge="1" parent="1" source="i6siqstiRKPXGyHys1UC-19" target="i6siqstiRKPXGyHys1UC-56">
          <mxGeometry relative="1" as="geometry" />
        </mxCell>
        <mxCell id="i6siqstiRKPXGyHys1UC-66" style="edgeStyle=orthogonalEdgeStyle;rounded=0;orthogonalLoop=1;jettySize=auto;html=1;exitX=1;exitY=0.5;exitDx=0;exitDy=0;entryX=0;entryY=0.25;entryDx=0;entryDy=0;entryPerimeter=0;" edge="1" parent="1" source="i6siqstiRKPXGyHys1UC-18" target="i6siqstiRKPXGyHys1UC-55">
          <mxGeometry relative="1" as="geometry">
            <Array as="points">
              <mxPoint x="90" y="855" />
              <mxPoint x="90" y="890" />
              <mxPoint x="220" y="890" />
            </Array>
          </mxGeometry>
        </mxCell>
        <mxCell id="i6siqstiRKPXGyHys1UC-67" style="edgeStyle=orthogonalEdgeStyle;rounded=0;orthogonalLoop=1;jettySize=auto;html=1;exitX=1;exitY=0.75;exitDx=0;exitDy=0;entryX=0;entryY=0.25;entryDx=0;entryDy=0;entryPerimeter=0;" edge="1" parent="1" source="i6siqstiRKPXGyHys1UC-18" target="i6siqstiRKPXGyHys1UC-56">
          <mxGeometry relative="1" as="geometry" />
        </mxCell>
        <mxCell id="i6siqstiRKPXGyHys1UC-68" style="edgeStyle=orthogonalEdgeStyle;rounded=0;orthogonalLoop=1;jettySize=auto;html=1;exitX=1;exitY=0.5;exitDx=0;exitDy=0;exitPerimeter=0;entryX=0;entryY=0.75;entryDx=0;entryDy=0;entryPerimeter=0;" edge="1" parent="1" source="i6siqstiRKPXGyHys1UC-53" target="i6siqstiRKPXGyHys1UC-6">
          <mxGeometry relative="1" as="geometry">
            <Array as="points">
              <mxPoint x="370" y="760" />
              <mxPoint x="370" y="355" />
            </Array>
          </mxGeometry>
        </mxCell>
        <mxCell id="i6siqstiRKPXGyHys1UC-69" style="edgeStyle=orthogonalEdgeStyle;rounded=0;orthogonalLoop=1;jettySize=auto;html=1;exitX=1;exitY=0.5;exitDx=0;exitDy=0;exitPerimeter=0;entryX=0;entryY=0.75;entryDx=0;entryDy=0;entryPerimeter=0;" edge="1" parent="1" source="i6siqstiRKPXGyHys1UC-54" target="i6siqstiRKPXGyHys1UC-7">
          <mxGeometry relative="1" as="geometry" />
        </mxCell>
        <mxCell id="i6siqstiRKPXGyHys1UC-70" style="edgeStyle=orthogonalEdgeStyle;rounded=0;orthogonalLoop=1;jettySize=auto;html=1;exitX=1;exitY=0.5;exitDx=0;exitDy=0;exitPerimeter=0;entryX=0;entryY=0.75;entryDx=0;entryDy=0;entryPerimeter=0;" edge="1" parent="1" source="i6siqstiRKPXGyHys1UC-55" target="i6siqstiRKPXGyHys1UC-8">
          <mxGeometry relative="1" as="geometry">
            <Array as="points">
              <mxPoint x="430" y="920" />
              <mxPoint x="430" y="545" />
            </Array>
          </mxGeometry>
        </mxCell>
        <mxCell id="i6siqstiRKPXGyHys1UC-71" style="edgeStyle=orthogonalEdgeStyle;rounded=0;orthogonalLoop=1;jettySize=auto;html=1;exitX=1;exitY=0.5;exitDx=0;exitDy=0;exitPerimeter=0;entryX=0;entryY=0.75;entryDx=0;entryDy=0;entryPerimeter=0;" edge="1" parent="1" source="i6siqstiRKPXGyHys1UC-56" target="i6siqstiRKPXGyHys1UC-9">
          <mxGeometry relative="1" as="geometry">
            <Array as="points">
              <mxPoint x="440" y="1000" />
              <mxPoint x="440" y="645" />
            </Array>
          </mxGeometry>
        </mxCell>
        <mxCell id="i6siqstiRKPXGyHys1UC-73" value="&lt;font style=&quot;font-size: 40px;&quot;&gt;Logic Calculations&lt;/font&gt;" style="text;html=1;align=center;verticalAlign=middle;whiteSpace=wrap;rounded=0;" vertex="1" parent="1">
          <mxGeometry x="200" y="1050" width="370" height="70" as="geometry" />
        </mxCell>
      </root>
    </mxGraphModel>
  </diagram>
</mxfile>
